<svg xmlns="http://www.w3.org/2000/svg" viewBox="0 0 233.49 70"><defs><style>.cls-1{fill:none;}.cls-2{fill:#d5d2ca;}.cls-3{fill:#e0684b;}.cls-4{fill:#bb464b;}.cls-5{fill:#e0ded8;}.cls-6{fill:#fff;}</style></defs><title>BabylonIdentity</title><g id="Layer_2" data-name="Layer 2"><g id="Header_Bar" data-name="Header Bar"><rect class="cls-1" width="233.49" height="70"/><path class="cls-2" d="M97.1,24.94h3.41v7.65c.61-1,1.82-2,4.21-2,3.74,0,5.78,3.08,5.78,7.13s-2.12,7.67-6.16,7.67c-2.15,0-3.17-.71-3.86-1.84a11.5,11.5,0,0,1-.13,1.51H97.07c0-1.54,0-3.11,0-4.68Zm6.63,8.42c-2.48,0-3.38,1.65-3.38,4.68,0,2.58.79,4.59,3.32,4.59,2.15,0,3.33-1.93,3.33-4.84C107,35.2,106,33.36,103.73,33.36Z"/><path class="cls-2" d="M124.42,41.59a28.94,28.94,0,0,0,.19,3.46h-3.27a7.26,7.26,0,0,1-.22-1.54c-.5.85-1.51,1.87-4.1,1.87-3.39,0-4.82-2.23-4.82-4.4,0-3.19,2.56-4.68,6.72-4.68h2.14v-1c0-1.1-.35-2.26-2.47-2.26-1.87,0-2.26.86-2.45,1.9h-3.28c.2-2.31,1.66-4.43,5.87-4.4,3.68,0,5.69,1.48,5.69,4.79Zm-3.33-3.14h-1.84c-2.51,0-3.61.74-3.61,2.34a2.05,2.05,0,0,0,2.29,2.09c2.8,0,3.16-1.93,3.16-4Z"/><path class="cls-2" d="M127.5,24.94h3.41v7.65c.61-1,1.82-2,4.21-2,3.75,0,5.78,3.08,5.78,7.13s-2.12,7.67-6.16,7.67c-2.15,0-3.17-.71-3.85-1.84a11.3,11.3,0,0,1-.14,1.51h-3.28c0-1.54,0-3.11,0-4.68Zm6.63,8.42c-2.47,0-3.38,1.65-3.38,4.68,0,2.58.8,4.59,3.33,4.59,2.14,0,3.33-1.93,3.33-4.84C137.41,35.2,136.36,33.36,134.13,33.36Z"/><path class="cls-2" d="M145.19,30.91c1.77,5.53,3,9.66,3.31,11h0c.36-1.48,1.24-4.67,3.14-11h3.41L150.2,45.55c-1.37,4.1-2.47,5.25-5.69,5.25a13.53,13.53,0,0,1-1.74-.11v-2.8c.31,0,.72,0,1.08,0,1.54,0,2.25-.58,2.89-2.42l-5.21-14.61Z"/><path class="cls-2" d="M156.59,45.05V24.94H160V45.05Z"/><path class="cls-2" d="M176.15,38c0,4.21-2.48,7.43-6.91,7.43s-6.79-3.13-6.79-7.37,2.55-7.43,7-7.43C173.51,30.58,176.15,33.52,176.15,38Zm-10.24,0c0,2.86,1.3,4.68,3.41,4.68s3.33-1.79,3.33-4.65c0-3.06-1.18-4.71-3.38-4.71S165.91,34.9,165.91,38Z"/><path class="cls-2" d="M178.62,34.46c0-1.21,0-2.48,0-3.55h3.3a15.64,15.64,0,0,1,.14,2,4.32,4.32,0,0,1,4.21-2.31c2.78,0,4.7,1.81,4.7,5.45v9h-3.41V36.41c0-1.76-.63-3-2.5-3s-3,1.29-3,3.9v7.76h-3.42Z"/><path class="cls-2" d="M194.2,45.05V40.48h3.66v4.57Z"/><path class="cls-2" d="M203.5,31.21V45.79c0,3.77-.91,5-3.61,5l-.85,0V49.12a3.89,3.89,0,0,0,.58,0c1.84,0,2-1,2-3.08V31.21Zm-1.85-3.58V24.8h1.85v2.83Z"/><path class="cls-2" d="M207.68,41.17a3.46,3.46,0,0,0,3.69,2.67c2.25,0,3.16-1,3.16-2.45s-.63-2.14-3.52-2.83c-3.77-.91-4.62-2.07-4.62-3.91s1.46-3.77,4.76-3.77,4.81,2,5,3.94h-1.81a3,3,0,0,0-3.28-2.4c-2.2,0-2.83,1.08-2.83,2.09,0,1.16.6,1.74,3.24,2.37,4.05,1,5,2.31,5,4.37,0,2.48-2,4.13-5.15,4.13-3.35,0-5.12-1.73-5.47-4.21Z"/><polygon class="cls-3" points="90.62 24.97 85.18 21.83 79.94 24.85 85.39 28 90.62 24.97"/><polygon class="cls-3" points="61.07 28 78.46 17.95 73.23 14.93 55.83 24.97 61.07 28"/><polygon class="cls-3" points="67.78 38.16 73.23 41.3 78.67 38.16 73.23 35.02 67.78 38.16"/><polygon class="cls-4" points="85.39 28 85.39 42.04 73.23 49.06 61.07 42.04 61.07 28 55.83 24.97 55.83 45.06 73.23 55.11 90.62 45.06 90.62 24.97 85.39 28"/><polygon class="cls-4" points="73.23 28.73 67.78 31.87 67.78 38.16 73.23 35.02 78.67 38.16 78.67 31.87 73.23 28.73"/><polygon class="cls-5" points="85.39 28 78.67 31.87 78.67 38.16 73.23 41.3 73.23 49.06 85.39 42.04 85.39 28"/><polygon class="cls-2" points="61.07 28 67.78 31.87 67.78 38.16 73.23 41.3 73.23 49.06 61.07 42.04 61.07 28"/><polygon class="cls-6" points="78.46 17.95 85.18 21.83 79.94 24.85 85.39 28 78.67 31.87 73.23 28.73 67.78 31.87 61.07 28 78.46 17.95"/></g></g></svg>