<?xml version="1.0" encoding="UTF-8" standalone="no"?>
<!-- Created with Inkscape (http://www.inkscape.org/) -->
<svg
   xmlns:dc="http://purl.org/dc/elements/1.1/"
   xmlns:cc="http://creativecommons.org/ns#"
   xmlns:rdf="http://www.w3.org/1999/02/22-rdf-syntax-ns#"
   xmlns:svg="http://www.w3.org/2000/svg"
   xmlns="http://www.w3.org/2000/svg"
   xmlns:xlink="http://www.w3.org/1999/xlink"
   xmlns:sodipodi="http://sodipodi.sourceforge.net/DTD/sodipodi-0.dtd"
   xmlns:inkscape="http://www.inkscape.org/namespaces/inkscape"
   height="256"
   id="svg3895"
   inkscape:output_extension="org.inkscape.output.svg.inkscape"
   inkscape:version="0.46"
   sodipodi:docname="distributions-mac.svg"
   sodipodi:version="0.32"
   version="1.0"
   width="256">
  <metadata
     id="metadata3609">
    <rdf:RDF>
      <cc:Work
         rdf:about="">
        <dc:title />
        <dc:description />
        <dc:subject>
          <rdf:Bag>
            <rdf:li>unsorted</rdf:li>
          </rdf:Bag>
        </dc:subject>
        <dc:publisher>
          <cc:Agent
             rdf:about="http://www.openclipart.org/">
            <dc:title>Open Clip Art Library, Source: Open Icon Library</dc:title>
          </cc:Agent>
        </dc:publisher>
        <dc:creator>
          <cc:Agent>
            <dc:title />
          </cc:Agent>
        </dc:creator>
        <dc:rights>
          <cc:Agent>
            <dc:title />
          </cc:Agent>
        </dc:rights>
        <dc:date />
        <dc:format>image/svg+xml</dc:format>
        <dc:type
           rdf:resource="http://purl.org/dc/dcmitype/StillImage" />
        <cc:license
           rdf:resource="http://web.resource.org/cc/PublicDomain" />
        <dc:language>en</dc:language>
      </cc:Work>
      <cc:License
         rdf:about="http://web.resource.org/cc/PublicDomain">
        <cc:permits
           rdf:resource="http://web.resource.org/cc/Reproduction" />
        <cc:permits
           rdf:resource="http://web.resource.org/cc/Distribution" />
        <cc:permits
           rdf:resource="http://web.resource.org/cc/DerivativeWorks" />
      </cc:License>
    </rdf:RDF>
  </metadata>
  <defs
     id="defs3897">
    <linearGradient
       id="linearGradient4568">
      <stop
         id="stop4570"
         offset="0"
         style="stop-color:#e1e0df;stop-opacity:0.49803922;" />
      <stop
         id="stop4572"
         offset="0"
         style="stop-color:#e1e0df;stop-opacity:0.74901961;" />
      <stop
         id="stop4574"
         offset="0"
         style="stop-color:#e1e0df;stop-opacity:1;" />
      <stop
         id="stop4576"
         offset="1"
         style="stop-color:#e1e0df;stop-opacity:0;" />
    </linearGradient>
    <linearGradient
       id="linearGradient4510">
      <stop
         id="stop4514"
         offset="0"
         style="stop-color:#e1e0df;stop-opacity:0.49803922;" />
      <stop
         id="stop4536"
         offset="0"
         style="stop-color:#697c8b;stop-opacity:1;" />
      <stop
         id="stop4602"
         offset="0"
         style="stop-color:#a5aeb5;stop-opacity:1;" />
      <stop
         id="stop4534"
         offset="0"
         style="stop-color:#e1e0df;stop-opacity:1;" />
      <stop
         id="stop4516"
         offset="1"
         style="stop-color:#e1e0df;stop-opacity:0;" />
    </linearGradient>
    <linearGradient
       id="linearGradient4502">
      <stop
         id="stop4504"
         offset="0"
         style="stop-color:#dde0df;stop-opacity:0.94845361;" />
      <stop
         id="stop4508"
         offset="0.5"
         style="stop-color:#e1e0df;stop-opacity:0.49803922;" />
      <stop
         id="stop4506"
         offset="1"
         style="stop-color:#e1e0df;stop-opacity:0;" />
    </linearGradient>
    <inkscape:perspective
       id="perspective3903"
       inkscape:persp3d-origin="372.04724 : 350.78739 : 1"
       inkscape:vp_x="0 : 526.18109 : 1"
       inkscape:vp_y="0 : 1000 : 0"
       inkscape:vp_z="744.09448 : 526.18109 : 1"
       sodipodi:type="inkscape:persp3d" />
    <inkscape:perspective
       id="perspective3969"
       inkscape:persp3d-origin="372.04724 : 350.78739 : 1"
       inkscape:vp_x="0 : 526.18109 : 1"
       inkscape:vp_y="0 : 1000 : 0"
       inkscape:vp_z="744.09448 : 526.18109 : 1"
       sodipodi:type="inkscape:persp3d" />
    <linearGradient
       gradientUnits="userSpaceOnUse"
       id="linearGradient4500"
       inkscape:collect="always"
       spreadMethod="pad"
       x1="31.982189"
       x2="233.75533"
       xlink:href="#linearGradient4510"
       y1="127.3456"
       y2="127.3456" />
    <linearGradient
       gradientUnits="userSpaceOnUse"
       id="linearGradient4532"
       inkscape:collect="always"
       spreadMethod="pad"
       x1="218.19295"
       x2="190.91884"
       xlink:href="#linearGradient4568"
       y1="219.63451"
       y2="201.45177" />
    <linearGradient
       gradientUnits="userSpaceOnUse"
       id="linearGradient4566"
       inkscape:collect="always"
       spreadMethod="pad"
       x1="160.61426"
       x2="150.51273"
       xlink:href="#linearGradient4510"
       y1="49.928883"
       y2="30.566313" />
    <linearGradient
       gradientUnits="userSpaceOnUse"
       id="linearGradient4584"
       inkscape:collect="always"
       spreadMethod="pad"
       x1="165.66502"
       x2="152.53304"
       xlink:href="#linearGradient4568"
       y1="246.90863"
       y2="213.57359" />
    <linearGradient
       gradientUnits="userSpaceOnUse"
       id="linearGradient4586"
       inkscape:collect="always"
       spreadMethod="pad"
       x1="220.21326"
       x2="51.51778"
       xlink:href="#linearGradient4510"
       y1="213.57359"
       y2="85.284218" />
    <linearGradient
       gradientUnits="userSpaceOnUse"
       id="linearGradient4588"
       inkscape:collect="always"
       spreadMethod="pad"
       x1="220.21326"
       x2="51.51778"
       xlink:href="#linearGradient4510"
       y1="213.57359"
       y2="85.284218" />
    <linearGradient
       gradientUnits="userSpaceOnUse"
       id="linearGradient4590"
       inkscape:collect="always"
       spreadMethod="pad"
       x1="220.21326"
       x2="51.51778"
       xlink:href="#linearGradient4510"
       y1="213.57359"
       y2="85.284218" />
    <linearGradient
       gradientTransform="translate(-6.0609153,1.0101525)"
       gradientUnits="userSpaceOnUse"
       id="linearGradient4596"
       inkscape:collect="always"
       spreadMethod="pad"
       x1="188.89853"
       x2="140.41121"
       xlink:href="#linearGradient4510"
       y1="247.91878"
       y2="173.1675" />
    <linearGradient
       gradientTransform="translate(-6.0609153,1.0101525)"
       gradientUnits="userSpaceOnUse"
       id="linearGradient4600"
       inkscape:collect="always"
       spreadMethod="pad"
       x1="147.48227"
       x2="139.40105"
       xlink:href="#linearGradient4510"
       y1="55.989796"
       y2="43.867966" />
  </defs>
  <sodipodi:namedview
     bordercolor="#666666"
     borderopacity="1.0"
     gridtolerance="10000"
     guidetolerance="10"
     id="base"
     inkscape:current-layer="layer1"
     inkscape:cx="156.93396"
     inkscape:cy="210.91373"
     inkscape:document-units="px"
     inkscape:guide-bbox="true"
     inkscape:pageopacity="0.0"
     inkscape:pageshadow="2"
     inkscape:window-height="674"
     inkscape:window-width="670"
     inkscape:window-x="0"
     inkscape:window-y="309"
     inkscape:zoom="0.98994949"
     objecttolerance="10"
     pagecolor="#ffffff"
     showgrid="false"
     showguides="true" />
  <g
     id="layer1"
     inkscape:groupmode="layer"
     inkscape:label="Layer 1">
    <g
       id="g3645">
      <path
         style="fill:#f3f3f3;fill-opacity:1;fill-rule:nonzero;stroke:#939494;stroke-width:1px;stroke-linecap:butt;stroke-linejoin:miter;stroke-opacity:1"
         sodipodi:nodetypes="cccccccccccccccccccccccccccccccccccccccccc"
         id="path3975"
         d="M 226.79135,189.08626 C 227.80358,185.16927 226.7883,183.78662 225.08965,183.25819 C 216.14673,177.74046 210.1841,171.54315 203.86599,162.37813 C 198.77841,151.73365 196.05782,148.41581 196.42386,133.4132 C 196.08202,126.18293 196.97833,118.95267 200.03904,111.7224 C 203.64412,104.30381 206.94096,98.059984 213.73286,93.734449 L 220.24018,87.950235 C 221.81237,86.764393 221.81052,84.408095 221.00707,82.80133 C 215.33474,76.938527 210.75035,70.920308 200.5503,65.704316 C 196.41797,63.311784 190.18099,61.460321 181.96315,61.110526 C 176.1616,61.113166 170.53309,60.942777 163.41986,62.257091 C 157.72078,63.185008 151.76608,65.118958 146.067,68.041306 L 137.85798,71.955928 C 132.65144,73.230874 127.92487,72.585946 123.39727,71.145182 L 108.21352,64.72566 C 102.92915,62.779692 96.743365,61.735146 89.414599,61.833552 C 82.179889,61.811781 75.0102,62.115112 68.446568,65.448687 C 63.243309,67.957777 58.509779,70.936588 53.985856,74.125008 C 48.624113,79.126713 43.535059,84.401106 39.525145,90.754625 C 36.436445,94.744128 34.248635,101.18064 31.827385,107.17247 C 29.616529,113.16975 28.604534,117.60888 27.700944,123.0352 C 26.118101,133.52725 26.307028,139.89827 26.678417,147.87374 C 27.459233,161.52735 29.412896,166.49468 30.848718,174.62573 C 32.57736,181.53187 34.960933,187.12817 37.356038,192.7014 C 39.789469,199.43799 43.73769,205.4172 47.478536,211.50009 C 50.770224,217.81917 55.914273,224.75569 61.216212,231.74484 C 65.79814,236.80739 67.922116,240.64096 76.65559,246.88456 C 82.512633,250.5432 83.377833,251.2551 86.522457,252.71263 C 89.417155,253.4331 92.410619,254.05479 96.644955,253.43565 C 99.397485,252.85223 101.97985,252.43898 106.04441,250.54354 C 108.93655,249.33849 111.8287,248.13346 114.72084,246.92841 C 117.95444,245.48235 121.12382,244.0363 127.01244,242.59025 C 130.86864,242.08417 134.72482,241.69836 138.58102,241.86722 C 141.00515,241.82743 145.04028,242.75422 150.87261,244.75932 C 154.49875,245.97167 156.48606,246.09148 163.88726,249.82051 C 167.02749,250.84067 169.02988,252.6194 174.00976,252.41314 C 178.79498,251.75492 183.31517,250.06479 186.76876,248.07498 C 190.58363,245.28272 195.08066,243.17262 197.65816,239.14303 C 200.77099,236.2404 202.59999,233.97969 204.37725,231.74484 L 213.05367,218.73037 C 215.83469,215.41886 218.35181,211.57957 220.45194,206.90631 C 222.98613,201.38734 224.9295,195.27755 226.79135,189.08626 z" />
      <path
         style="fill:#f9f9f9;fill-opacity:1;fill-rule:nonzero;stroke:#939494;stroke-width:1px;stroke-linecap:butt;stroke-linejoin:miter;stroke-opacity:1"
         sodipodi:nodetypes="cccccccccccccccccccc"
         id="path4486"
         d="M 126.62899,57.623206 C 126.70519,60.512968 128.52419,59.649994 129.54306,60.025985 C 133.37626,60.460634 135.25637,59.430484 137.85798,58.941445 C 142.89025,57.499014 144.83081,56.443041 147.25744,55.32631 C 150.02908,53.677375 152.80071,52.488445 155.57235,49.90361 C 158.1866,48.003414 159.84541,46.381209 162.07967,43.757883 C 165.03594,40.720352 166.02579,39.285406 168.22547,36.166101 C 170.67214,32.599106 171.84065,30.225228 173.64824,26.40524 C 174.86037,23.335916 176.32254,20.391601 176.9019,17.00589 C 177.54181,13.951721 178.35268,10.983022 178.34797,7.6065432 C 178.55126,5.9571962 178.08673,4.9756749 177.62493,3.9914092 C 175.79865,2.9137576 174.85777,2.9491678 172.7316,3.1004718 C 170.24254,3.1111173 167.05612,3.4939366 163.52574,5.0759494 C 159.63758,6.8622085 155.91818,8.7609624 153.04172,11.221677 C 149.96874,13.149749 147.88543,15.07782 145.81137,17.00589 C 143.29274,19.307468 141.13138,21.966321 138.94253,24.597672 C 136.45165,27.570221 134.50785,30.150375 133.37002,32.784667 C 131.83427,35.719378 130.76752,38.654089 129.54306,41.588802 C 128.24309,44.720723 127.24745,48.004808 126.62899,51.477477 C 126.27245,53.644897 126.36496,55.151381 126.62899,57.623206 z" />
      <path
         style="fill:url(#linearGradient4600);fill-opacity:1;fill-rule:nonzero;stroke:#939494;stroke-width:1px;stroke-linecap:butt;stroke-linejoin:miter;stroke-opacity:1"
         sodipodi:nodetypes="cccccccccccccccccccc"
         id="path4598"
         d="M 126.62899,57.623206 C 126.70519,60.512968 128.52419,59.649994 129.54306,60.025985 C 133.37626,60.460634 135.25637,59.430484 137.85798,58.941445 C 142.89025,57.499014 144.83081,56.443041 147.25744,55.32631 C 150.02908,53.677375 152.80071,52.488445 155.57235,49.90361 C 158.1866,48.003414 159.84541,46.381209 162.07967,43.757883 C 165.03594,40.720352 166.02579,39.285406 168.22547,36.166101 C 170.67214,32.599106 171.84065,30.225228 173.64824,26.40524 C 174.86037,23.335916 176.32254,20.391601 176.9019,17.00589 C 177.54181,13.951721 178.35268,10.983022 178.34797,7.6065432 C 178.55126,5.9571962 178.08673,4.9756749 177.62493,3.9914092 C 175.79865,2.9137576 174.85777,2.9491678 172.7316,3.1004718 C 170.24254,3.1111173 167.05612,3.4939366 163.52574,5.0759494 C 159.63758,6.8622085 155.91818,8.7609624 153.04172,11.221677 C 149.96874,13.149749 147.88543,15.07782 145.81137,17.00589 C 143.29274,19.307468 141.13138,21.966321 138.94253,24.597672 C 136.45165,27.570221 134.50785,30.150375 133.37002,32.784667 C 131.83427,35.719378 130.76752,38.654089 129.54306,41.588802 C 128.24309,44.720723 127.24745,48.004808 126.62899,51.477477 C 126.27245,53.644897 126.36496,55.151381 126.62899,57.623206 z" />
      <path
         style="fill:url(#linearGradient4596);fill-opacity:1;fill-rule:nonzero;stroke:#939494;stroke-width:1px;stroke-linecap:butt;stroke-linejoin:miter;stroke-opacity:1"
         sodipodi:nodetypes="cccccccccccccccccccccccccccccccccccccccccc"
         id="path2408"
         d="M 226.79135,189.08626 C 227.80358,185.16927 226.7883,183.78662 225.08965,183.25819 C 216.14673,177.74046 210.1841,171.54315 203.86599,162.37813 C 198.77841,151.73365 196.05782,148.41581 196.42386,133.4132 C 196.08202,126.18293 196.97833,118.95267 200.03904,111.7224 C 203.64412,104.30381 206.94096,98.059984 213.73286,93.734449 L 220.24018,87.950235 C 221.81237,86.764393 221.81052,84.408095 221.00707,82.80133 C 215.33474,76.938527 210.75035,70.920308 200.5503,65.704316 C 196.41797,63.311784 190.18099,61.460321 181.96315,61.110526 C 176.1616,61.113166 170.53309,60.942777 163.41986,62.257091 C 157.72078,63.185008 151.76608,65.118958 146.067,68.041306 L 137.85798,71.955928 C 132.65144,73.230874 127.92487,72.585946 123.39727,71.145182 L 108.21352,64.72566 C 102.92915,62.779692 96.743365,61.735146 89.414599,61.833552 C 82.179889,61.811781 75.0102,62.115112 68.446568,65.448687 C 63.243309,67.957777 58.509779,70.936588 53.985856,74.125008 C 48.624113,79.126713 43.535059,84.401106 39.525145,90.754625 C 36.436445,94.744128 34.248635,101.18064 31.827385,107.17247 C 29.616529,113.16975 28.604534,117.60888 27.700944,123.0352 C 26.118101,133.52725 26.307028,139.89827 26.678417,147.87374 C 27.459233,161.52735 29.412896,166.49468 30.848718,174.62573 C 32.57736,181.53187 34.960933,187.12817 37.356038,192.7014 C 39.789469,199.43799 43.73769,205.4172 47.478536,211.50009 C 50.770224,217.81917 55.914273,224.75569 61.216212,231.74484 C 65.79814,236.80739 67.922116,240.64096 76.65559,246.88456 C 82.512633,250.5432 83.377833,251.2551 86.522457,252.71263 C 89.417155,253.4331 92.410619,254.05479 96.644955,253.43565 C 99.397485,252.85223 101.97985,252.43898 106.04441,250.54354 C 108.93655,249.33849 111.8287,248.13346 114.72084,246.92841 C 117.95444,245.48235 121.12382,244.0363 127.01244,242.59025 C 130.86864,242.08417 134.72482,241.69836 138.58102,241.86722 C 141.00515,241.82743 145.04028,242.75422 150.87261,244.75932 C 154.49875,245.97167 156.48606,246.09148 163.88726,249.82051 C 167.02749,250.84067 169.02988,252.6194 174.00976,252.41314 C 178.79498,251.75492 183.31517,250.06479 186.76876,248.07498 C 190.58363,245.28272 195.08066,243.17262 197.65816,239.14303 C 200.77099,236.2404 202.59999,233.97969 204.37725,231.74484 L 213.05367,218.73037 C 215.83469,215.41886 218.35181,211.57957 220.45194,206.90631 C 222.98613,201.38734 224.9295,195.27755 226.79135,189.08626 z" />
      <path
         style="fill:url(#linearGradient4600);fill-opacity:1;fill-rule:nonzero;stroke:#939494;stroke-width:1px;stroke-linecap:butt;stroke-linejoin:miter;stroke-opacity:1"
         sodipodi:nodetypes="cccccccccccccccccccc"
         id="path3180"
         d="M 126.62899,57.623206 C 126.70519,60.512968 128.52419,59.649994 129.54306,60.025985 C 133.37626,60.460634 135.25637,59.430484 137.85798,58.941445 C 142.89025,57.499014 144.83081,56.443041 147.25744,55.32631 C 150.02908,53.677375 152.80071,52.488445 155.57235,49.90361 C 158.1866,48.003414 159.84541,46.381209 162.07967,43.757883 C 165.03594,40.720352 166.02579,39.285406 168.22547,36.166101 C 170.67214,32.599106 171.84065,30.225228 173.64824,26.40524 C 174.86037,23.335916 176.32254,20.391601 176.9019,17.00589 C 177.54181,13.951721 178.35268,10.983022 178.34797,7.6065432 C 178.55126,5.9571962 178.08673,4.9756749 177.62493,3.9914092 C 175.79865,2.9137576 174.85777,2.9491678 172.7316,3.1004718 C 170.24254,3.1111173 167.05612,3.4939366 163.52574,5.0759494 C 159.63758,6.8622085 155.91818,8.7609624 153.04172,11.221677 C 149.96874,13.149749 147.88543,15.07782 145.81137,17.00589 C 143.29274,19.307468 141.13138,21.966321 138.94253,24.597672 C 136.45165,27.570221 134.50785,30.150375 133.37002,32.784667 C 131.83427,35.719378 130.76752,38.654089 129.54306,41.588802 C 128.24309,44.720723 127.24745,48.004808 126.62899,51.477477 C 126.27245,53.644897 126.36496,55.151381 126.62899,57.623206 z" />
    </g>
  </g>
</svg>
