<?xml version="1.0" encoding="utf-8"?>
<!-- Generator: Adobe Illustrator 16.0.0, SVG Export Plug-In . SVG Version: 6.00 Build 0)  -->
<!DOCTYPE svg PUBLIC "-//W3C//DTD SVG 1.0//EN" "http://www.w3.org/TR/2001/REC-SVG-20010904/DTD/svg10.dtd">
<svg version="1.0" id="Layer_1" xmlns="http://www.w3.org/2000/svg" xmlns:xlink="http://www.w3.org/1999/xlink" x="0px" y="0px"
	 width="750px" height="250px" viewBox="0 0 750 250" enable-background="new 0 0 750 250" xml:space="preserve">
<polygon fill="#364148" stroke="#282828" stroke-width="0.25" stroke-miterlimit="10" points="86.179,110.965 105.655,105.492 
	105.655,157.596 159.785,139.15 165.534,89.469 182.425,85.082 173.813,149.166 89.223,180.975 "/>
<polygon fill="#E02127" stroke="#282828" stroke-width="0.25" stroke-miterlimit="10" points="90.188,82.278 128.336,73.831 
	156.762,89.707 152.378,133.232 111.704,146.664 111.501,98.174 "/>
<polygon fill="#61B0E1" stroke="#282828" stroke-width="0.25" stroke-miterlimit="10" points="65.897,165.75 85.466,188.76 
	172.758,156.041 170.521,170.449 86.755,204.316 66.502,178.896 "/>
<polygon fill="#405A68" stroke="#282828" stroke-width="0.25" stroke-miterlimit="10" points="60.044,170.125 59.037,148.232 
	82.749,176.35 80.089,110.353 59.803,92.508 63.072,141.518 41.791,118.295 45.931,151.699 "/>
<polyline fill="#2CB24B" stroke="#282828" stroke-width="0.25" stroke-miterlimit="10" points="56.287,125.434 56.244,124.873 
	52.623,83.613 57.423,82.36 74.95,78.578 55.083,63.965 34.894,67.33 40.345,107.447 "/>
<polygon fill="#3B789A" stroke="#282828" stroke-width="0.25" stroke-miterlimit="10" points="63.072,87.329 81.454,83.361 
	103.641,99.775 83.618,105.403 "/>
<polygon fill="#3B789A" stroke="#282828" stroke-width="0.25" stroke-miterlimit="10" points="82.842,76.875 128.94,67.027 
	161.547,84.256 179.084,79.701 121.683,51 62.859,62.176 "/>
<g>
	<path fill="#405A68" stroke="#282828" stroke-width="0.25" stroke-miterlimit="10" d="M220.337,161.533v9.336h-7.244V85.082h7.244
		v38.933h0.227c2.15-4.037,5.026-7.12,8.629-9.252c3.603-2.131,7.668-3.197,12.195-3.197c3.697,0,7.007,0.67,9.932,2.009
		c2.923,1.339,5.394,3.254,7.413,5.744c2.018,2.49,3.565,5.489,4.64,8.997c1.075,3.51,1.612,7.414,1.612,11.715
		c0,4.791-0.613,9.158-1.839,13.1c-1.227,3.943-2.971,7.328-5.234,10.158c-2.264,2.828-5.008,5.027-8.234,6.592
		s-6.838,2.348-10.837,2.348c-8.187,0-14.279-3.564-18.277-10.693H220.337z M220.337,146.764c0,2.641,0.443,5.119,1.33,7.441
		c0.886,2.318,2.123,4.355,3.707,6.111c1.584,1.754,3.499,3.141,5.744,4.158c2.244,1.02,4.725,1.527,7.441,1.527
		c2.904,0,5.526-0.611,7.866-1.838c2.338-1.227,4.329-2.971,5.97-5.234s2.905-4.998,3.792-8.207c0.886-3.205,1.33-6.789,1.33-10.75
		c0-3.396-0.416-6.461-1.245-9.195c-0.83-2.735-2.009-5.065-3.537-6.989c-1.527-1.924-3.376-3.396-5.545-4.414
		c-2.169-1.019-4.593-1.528-7.271-1.528c-3.019,0-5.735,0.557-8.149,1.669c-2.415,1.113-4.47,2.631-6.168,4.556
		c-1.697,1.924-2.999,4.179-3.904,6.761c-0.906,2.586-1.358,5.33-1.358,8.234V146.764z"/>
	<path fill="#405A68" stroke="#282828" stroke-width="0.25" stroke-miterlimit="10" d="M305.649,170.869V160.57h-0.225
		c-1.888,3.697-4.462,6.564-7.726,8.602c-3.263,2.037-6.95,3.055-11.062,3.055c-2.793,0-5.311-0.396-7.555-1.188
		c-2.245-0.793-4.15-1.914-5.715-3.367c-1.566-1.451-2.773-3.197-3.622-5.234c-0.849-2.037-1.273-4.281-1.273-6.734
		c0-5.242,1.622-9.422,4.867-12.533c3.244-3.113,8.149-5.141,14.712-6.084l17.599-2.547c0-11.128-4.319-16.693-12.958-16.693
		c-6.753,0-13.015,2.471-18.787,7.413v-7.922c1.207-0.867,2.575-1.65,4.103-2.348s3.141-1.302,4.838-1.812
		c1.698-0.509,3.443-0.905,5.234-1.188c1.792-0.283,3.538-0.424,5.235-0.424c6.451,0,11.327,1.811,14.628,5.433
		c3.3,3.622,4.952,9.017,4.952,16.184v37.688H305.649z M290.711,142.744c-2.604,0.379-4.83,0.85-6.677,1.416
		c-1.849,0.564-3.377,1.328-4.584,2.291c-1.208,0.963-2.094,2.15-2.659,3.564c-0.566,1.416-0.85,3.16-0.85,5.236
		c0,1.547,0.273,2.979,0.821,4.299c0.547,1.322,1.339,2.463,2.377,3.424c1.037,0.963,2.301,1.709,3.791,2.236
		s3.179,0.791,5.064,0.791c2.566,0,4.924-0.488,7.074-1.471c2.15-0.98,4.008-2.338,5.574-4.074c1.565-1.734,2.792-3.811,3.678-6.225
		c0.886-2.414,1.33-5.037,1.33-7.865v-5.717L290.711,142.744z"/>
	<path fill="#405A68" stroke="#282828" stroke-width="0.25" stroke-miterlimit="10" d="M331.771,161.533v9.336h-7.243V85.082h7.243
		v38.933h0.226c2.151-4.037,5.027-7.12,8.63-9.252c3.602-2.131,7.667-3.197,12.195-3.197c3.697,0,7.007,0.67,9.931,2.009
		c2.922,1.339,5.395,3.254,7.414,5.744c2.016,2.49,3.564,5.489,4.639,8.997c1.076,3.51,1.613,7.414,1.613,11.715
		c0,4.791-0.613,9.158-1.84,13.1c-1.227,3.943-2.971,7.328-5.234,10.158c-2.264,2.828-5.008,5.027-8.232,6.592
		c-3.226,1.564-6.838,2.348-10.837,2.348c-8.186,0-14.28-3.564-18.278-10.693H331.771z M331.771,146.764
		c0,2.641,0.443,5.119,1.331,7.441c0.886,2.318,2.122,4.355,3.706,6.111c1.585,1.754,3.499,3.141,5.745,4.158
		c2.244,1.02,4.725,1.527,7.44,1.527c2.905,0,5.527-0.611,7.866-1.838s4.329-2.971,5.971-5.234c1.641-2.264,2.902-4.998,3.791-8.207
		c0.885-3.205,1.33-6.789,1.33-10.75c0-3.396-0.416-6.461-1.246-9.195c-0.83-2.735-2.01-5.065-3.537-6.989
		c-1.527-1.924-3.376-3.396-5.544-4.414c-2.171-1.019-4.594-1.528-7.272-1.528c-3.019,0-5.735,0.557-8.148,1.669
		c-2.415,1.113-4.47,2.631-6.168,4.556c-1.698,1.924-2.999,4.179-3.904,6.761c-0.906,2.586-1.358,5.33-1.358,8.234V146.764z"/>
	<path fill="#405A68" stroke="#282828" stroke-width="0.25" stroke-miterlimit="10" d="M402.031,181.395
		c-2.264,5.66-4.867,9.855-7.809,12.592c-2.943,2.734-6.508,4.102-10.695,4.102c-2.076,0-3.83-0.246-5.264-0.734v-6.791
		c0.83,0.301,1.67,0.527,2.518,0.68c0.85,0.148,1.709,0.225,2.576,0.225c2.377,0,4.441-0.744,6.195-2.234
		c1.756-1.492,3.273-3.744,4.557-6.762l5.035-11.885l-22.295-57.663h8.035l16.58,45.894c0.227,0.604,0.443,1.293,0.65,2.064
		c0.207,0.773,0.406,1.537,0.596,2.293h0.283c0.188-0.643,0.367-1.293,0.537-1.953s0.404-1.387,0.707-2.178l17.6-46.12h7.639
		L402.031,181.395z"/>
	<path fill="#405A68" stroke="#282828" stroke-width="0.25" stroke-miterlimit="10" d="M433.699,170.869V85.082h7.242v85.788
		H433.699z"/>
	<path fill="#405A68" stroke="#282828" stroke-width="0.25" stroke-miterlimit="10" d="M477.531,172.227
		c-4.301,0-8.158-0.717-11.572-2.15c-3.414-1.432-6.328-3.461-8.742-6.082c-2.416-2.623-4.264-5.764-5.547-9.422
		c-1.281-3.66-1.924-7.715-1.924-12.166c0-4.83,0.68-9.148,2.037-12.959c1.359-3.81,3.293-7.045,5.801-9.706
		c2.51-2.659,5.537-4.687,9.082-6.083c3.547-1.395,7.508-2.094,11.885-2.094c4.188,0,7.959,0.689,11.316,2.065
		c3.357,1.377,6.207,3.367,8.545,5.97c2.34,2.603,4.133,5.772,5.377,9.507c1.244,3.734,1.867,7.979,1.867,12.732
		c0,4.527-0.65,8.648-1.953,12.365c-1.301,3.715-3.16,6.912-5.574,9.59c-2.414,2.68-5.355,4.754-8.826,6.225
		C485.832,171.492,481.908,172.227,477.531,172.227z M478.097,117.846c-3.168,0-6.037,0.547-8.602,1.641
		c-2.566,1.094-4.764,2.688-6.592,4.781c-1.832,2.094-3.236,4.66-4.217,7.696c-0.98,3.037-1.471,6.479-1.471,10.328
		c0,3.621,0.49,6.885,1.471,9.789s2.367,5.395,4.16,7.469c1.791,2.076,3.969,3.67,6.535,4.783c2.564,1.113,5.434,1.668,8.602,1.668
		c3.244,0,6.111-0.537,8.602-1.611c2.49-1.076,4.602-2.641,6.338-4.697c1.734-2.057,3.047-4.574,3.932-7.555
		c0.887-2.98,1.332-6.375,1.332-10.186c0-7.811-1.736-13.779-5.207-17.911C489.509,119.912,484.548,117.846,478.097,117.846z"/>
	<path fill="#405A68" stroke="#282828" stroke-width="0.25" stroke-miterlimit="10" d="M553.564,170.869v-33.387
		c0-13.09-4.754-19.636-14.262-19.636c-2.527,0-4.865,0.5-7.016,1.5c-2.15,1-4.01,2.386-5.574,4.159
		c-1.566,1.774-2.793,3.876-3.678,6.31c-0.889,2.434-1.33,5.064-1.33,7.895v33.16h-7.244v-57.946h7.244v10.073h0.225
		c4.303-7.62,10.771-11.431,19.41-11.431c6.338,0,11.168,2.057,14.486,6.168c3.32,4.112,4.98,10.054,4.98,17.826v35.311H553.564z"/>
	<path fill="#3B789A" stroke="#282828" stroke-width="0.25" stroke-miterlimit="10" d="M639.195,138.67
		c0,10.865-2.52,19.184-7.555,24.957c-5.037,5.771-12.328,8.656-21.873,8.656c-4.262,0-8.205-0.734-11.826-2.207V152.93
		c3.131,2.377,6.641,3.566,10.525,3.566c8.338,0,12.506-6.188,12.506-18.561V89.722h18.223V138.67z"/>
	<path fill="#3B789A" stroke="#282828" stroke-width="0.25" stroke-miterlimit="10" d="M647.433,167.756v-18.107
		c3.281,2.754,6.848,4.82,10.695,6.197s7.732,2.064,11.656,2.064c2.301,0,4.311-0.207,6.027-0.623
		c1.717-0.414,3.148-0.988,4.301-1.725c1.15-0.736,2.008-1.604,2.574-2.604s0.85-2.084,0.85-3.254c0-1.584-0.453-3-1.357-4.244
		c-0.906-1.244-2.143-2.395-3.707-3.451c-1.566-1.057-3.424-2.074-5.574-3.057c-2.15-0.98-4.471-1.98-6.961-2.998
		c-6.338-2.641-11.063-5.867-14.176-9.677c-3.111-3.81-4.668-8.412-4.668-13.808c0-4.225,0.85-7.856,2.547-10.894
		c1.697-3.036,4.008-5.536,6.932-7.498c2.924-1.961,6.309-3.404,10.158-4.329c3.848-0.924,7.922-1.387,12.223-1.387
		c4.225,0,7.969,0.255,11.232,0.764c3.262,0.509,6.271,1.293,9.025,2.349v16.92c-1.357-0.942-2.838-1.773-4.441-2.49
		c-1.604-0.716-3.254-1.311-4.951-1.783s-3.387-0.821-5.064-1.047c-1.68-0.226-3.273-0.339-4.781-0.339
		c-2.076,0-3.963,0.198-5.66,0.594c-1.697,0.396-3.131,0.953-4.301,1.669c-1.17,0.717-2.074,1.576-2.717,2.575
		c-0.641,1-0.961,2.122-0.961,3.367c0,1.358,0.359,2.575,1.074,3.65c0.717,1.075,1.736,2.094,3.057,3.056s2.924,1.905,4.811,2.83
		c1.887,0.925,4.018,1.877,6.395,2.858c3.244,1.357,6.158,2.801,8.742,4.329c2.584,1.527,4.801,3.254,6.65,5.178
		c1.848,1.924,3.262,4.123,4.242,6.592c0.982,2.473,1.473,5.348,1.473,8.631c0,4.527-0.859,8.328-2.574,11.402
		c-1.717,3.074-4.047,5.564-6.99,7.469c-2.941,1.906-6.365,3.273-10.27,4.104s-8.027,1.244-12.365,1.244
		c-4.451,0-8.686-0.377-12.705-1.131C653.855,170.398,650.376,169.266,647.433,167.756z"/>
</g>
<circle fill="#3B789A" stroke="#282828" stroke-width="0.25" stroke-miterlimit="10" cx="579.948" cy="160.818" r="13.224"/>
</svg>
