<?xml version="1.0" encoding="utf-8"?>
<!-- Generator: Adobe Illustrator 15.0.0, SVG Export Plug-In . SVG Version: 6.00 Build 0)  -->
<!DOCTYPE svg PUBLIC "-//W3C//DTD SVG 1.1//EN" "http://www.w3.org/Graphics/SVG/1.1/DTD/svg11.dtd">
<svg version="1.1" id="Layer_1" xmlns="http://www.w3.org/2000/svg" xmlns:xlink="http://www.w3.org/1999/xlink" x="0px" y="0px"
	 width="16px" height="16px" viewBox="-399.5 200.5 16 16" enable-background="new -399.5 200.5 16 16" xml:space="preserve">
<g>
	<path fill="none" stroke="#707070" stroke-linejoin="bevel" stroke-miterlimit="10" d="M-389.5,202.082h1.635
		c1.328,0,1.865,1.174,1.865,2.503v1.043c0,1.329,0.882,2.407,2,2.407v0.031c-1.118-0.002-2,1.065-2,2.396v1.603
		c0,1.328-0.537,2.019-1.865,2.019h-1.635"/>
	<path fill="none" stroke="#707070" stroke-linejoin="bevel" stroke-miterlimit="10" d="M-393.5,214.082h-1.135
		c-1.328,0-2.365-0.689-2.365-2.018v-1.604c0-1.329,0-2.396-2-2.396v-0.03c2,0,2-1.078,2-2.407v-1.043
		c0-1.329,1.037-2.503,2.365-2.503h1.135"/>
</g>
</svg>
