<svg xmlns="http://www.w3.org/2000/svg" viewBox="0 0 32.52 31.72"><defs><style>.cls-1{fill:#fff;fill-rule:evenodd;}</style></defs><title>GithubIcon</title><g id="Layer_2" data-name="Layer 2"><g id="Footer_Logos" data-name="Footer Logos"><path class="cls-1" d="M16.26,0a16.26,16.26,0,0,0-5.14,31.69c.81.14,1.12-.35,1.12-.78s0-1.66,0-3c-4.09.75-5.15-1-5.47-1.91a6,6,0,0,0-1.67-2.3c-.57-.31-1.38-1.06,0-1.08a3.24,3.24,0,0,1,2.5,1.67,3.48,3.48,0,0,0,4.74,1.34,3.46,3.46,0,0,1,1-2.18c-3.61-.4-7.4-1.8-7.4-8A6.3,6.3,0,0,1,7.6,11a5.88,5.88,0,0,1,.16-4.31s1.37-.43,4.48,1.66a15.57,15.57,0,0,1,8.13,0c3.11-2.11,4.47-1.66,4.47-1.66A5.88,5.88,0,0,1,25,11a6.26,6.26,0,0,1,1.67,4.37c0,6.24-3.8,7.62-7.42,8a3.86,3.86,0,0,1,1.1,3c0,2.18,0,3.93,0,4.47s.31.94,1.12.78A16.27,16.27,0,0,0,16.26,0Z"/></g></g></svg>