<?xml version="1.0" encoding="utf-8"?><svg version="1.1" id="Layer_1" xmlns="http://www.w3.org/2000/svg" xmlns:xlink="http://www.w3.org/1999/xlink" x="0px" y="0px" viewBox="0 0 122.88 122.87" style="enable-background:new 0 0 122.88 122.87" xml:space="preserve"><style type="text/css">.st0{fill-rule:evenodd;clip-rule:evenodd;}</style><g><path class="st0" d="M16.69,101.1l-0.22-0.02c-4.9-0.42-9.18-2.78-12.14-6.24c-2.97-3.48-4.63-8.07-4.27-12.97 c0-0.08,0.01-0.18,0.02-0.26c0.42-4.9,2.78-9.18,6.24-12.14c3.51-3,8.15-4.66,13.1-4.27l11.88,0.96 c11.62-11.62,23.23-23.24,34.85-34.86l-0.96-11.88c-0.38-4.96,1.27-9.6,4.27-13.1c3-3.5,7.33-5.87,12.27-6.25 c4.96-0.38,9.6,1.27,13.1,4.27c3.5,3,5.87,7.33,6.25,12.27l0.43,5.33l2.85-0.1l0-0.01h0.14c4.88-0.1,9.34,1.73,12.66,4.82 c3.36,3.14,5.53,7.55,5.7,12.51v0.09h0.01v0.14c0.12,4.88-1.73,9.34-4.82,12.66c-3.14,3.36-7.55,5.53-12.52,5.7l-15.46,0.58 C79.47,68.91,68.91,79.49,58.3,90.09l-0.58,15.46c-0.18,4.96-2.34,9.38-5.7,12.51c-3.36,3.13-7.92,4.98-12.88,4.81 c-4.96-0.18-9.38-2.34-12.51-5.7c-3.13-3.36-4.98-7.92-4.81-12.88l0.1-2.75L16.69,101.1L16.69,101.1L16.69,101.1z M36.61,68.09 L36.61,68.09l-2.53,2.53c-0.51,0.51-1.24,0.8-2.02,0.75l-13.05-1.05c-3.55-0.28-6.86,0.91-9.36,3.04c-2.5,2.14-4.19,5.23-4.47,8.77 c-0.28,3.53,0.9,6.85,3.03,9.36l0,0c2.12,2.47,5.18,4.15,8.68,4.46l7.88,0.63l0,0.01c1.37,0.1,2.42,1.27,2.37,2.65l-0.2,5.21 c-0.13,3.54,1.2,6.79,3.44,9.19c2.24,2.4,5.39,3.96,8.92,4.07c3.53,0.13,6.79-1.2,9.19-3.44c2.4-2.24,3.95-5.39,4.07-8.93 l0.62-16.29c-0.02-0.69,0.22-1.39,0.75-1.92l0.86-0.86C65.58,75.5,76.36,64.73,87.14,53.95l0.01,0.01 c0.44-0.44,1.05-0.72,1.73-0.75l16.47-0.62c3.53-0.13,6.7-1.67,8.92-4.07c2.21-2.36,3.51-5.54,3.44-9.01 c-0.01-0.09-0.01-0.19-0.01-0.28h0.01c-0.15-3.5-1.69-6.61-4.07-8.84c-2.36-2.19-5.54-3.51-9.01-3.44 c-0.09,0.01-0.19,0.01-0.28,0.01v-0.01l-5.02,0.2c-1.41,0.12-2.66-0.95-2.76-2.37l-0.63-7.78c-0.28-3.55-1.96-6.64-4.47-8.77 c-2.5-2.15-5.81-3.32-9.36-3.04c-3.55,0.28-6.64,1.96-8.77,4.47c-2.14,2.5-3.31,5.82-3.05,9.36l1.04,12.96 c0.09,0.76-0.15,1.54-0.74,2.11l0,0C59.28,45.42,47.95,56.76,36.61,68.09L36.61,68.09z"/></g></svg>