<svg
	xmlns="http://www.w3.org/2000/svg" viewBox="0 0 512 512">
	<path d="m215.456231,2.309667c-87.342332,6.135675 -150.32743,30.581386 -167.223506,64.904411l-4.257199,8.647115l0,180.177164l0,180.177164l4.257199,8.647115c43.521432,88.407482 372.013131,88.407482 415.534563,0l4.257199,-8.647115l0,-180.177164l0,-180.177164l-4.257199,-8.647115c-22.323919,-45.348863 -129.162246,-73.274179 -248.311057,-64.904411m79.89819,42.372907c57.969023,4.507322 116.523369,20.75682 128.171962,35.566835c16.918195,21.50719 -75.821352,48.175084 -167.526376,48.175084c-91.705024,0 -184.444572,-26.667895 -167.526376,-48.175084c18.640132,-23.698745 124.806359,-41.950931 206.880791,-35.566835m128.338711,386.824847c-16.962435,22.769716 -126.125036,42.61112 -200.061106,36.361444l-10.169974,-0.860968l0,-148.658241l0,-148.659943l26.918018,0.815027c67.288238,2.04012 138.440624,-8.893836 177.131446,-27.215783l7.975016,-3.77737l0.340304,144.336385c0.328393,138.995319 0.250123,144.458894 -2.133704,147.65945"/>
</svg>