<svg width="512" height="512" xmlns="http://www.w3.org/2000/svg" xmlns:xlink="http://www.w3.org/1999/xlink">
 <defs>
  <symbol viewBox="0, 0, 400,400" height="400" width="400" id="svg_5" xmlns:xlink="http://www.w3.org/1999/xlink">
   <g id="svg_3">
    <path fill-rule="evenodd" fill="#000000" d="m176.172,50.881c-51.332,3.606 -88.349,17.973 -98.279,38.145l-2.502,5.082l0,105.892l0,105.892l2.502,5.082c25.578,51.958 218.636,51.958 244.214,0l2.502,-5.082l0,-105.892l0,-105.892l-2.502,-5.082c-13.12,-26.652 -75.91,-43.064 -145.935,-38.145m46.957,24.903c34.069,2.649 68.482,12.199 75.328,20.903c9.943,12.64 -44.561,28.313 -98.457,28.313c-53.896,0 -108.4,-15.673 -98.457,-28.313c10.955,-13.928 73.35,-24.655 121.586,-20.903m75.426,227.341c-9.969,13.382 -74.125,25.043 -117.578,21.37l-5.977,-0.506l0,-87.368l0,-87.369l15.82,0.479c39.546,1.199 81.363,-5.227 104.102,-15.995l4.687,-2.22l0.2,84.828c0.193,81.689 0.147,84.9 -1.254,86.781" id="svg_4"/>
   </g>
  </symbol>
 </defs>
 <g>
  <title>background</title>
  <rect fill="none" id="canvas_background" height="402" width="582" y="-1" x="-1"/>
 </g>
 <g>
  <title>Layer 1</title>
  <use stroke="null" x="-11.789259" y="-38.214463" transform="matrix(1.7010322122908974,0,0,1.7010322122908974,-58.652531196812205,-18.91122534282453) " xlink:href="#svg_5" id="svg_6"/>
 </g>
</svg>