<?xml version="1.0" encoding="iso-8859-1"?>
<!-- Generator: Adobe Illustrator 16.0.0, SVG Export Plug-In . SVG Version: 6.00 Build 0)  -->
<!DOCTYPE svg PUBLIC "-//W3C//DTD SVG 1.1//EN" "http://www.w3.org/Graphics/SVG/1.1/DTD/svg11.dtd">
<svg version="1.1" id="Capa_1" xmlns="http://www.w3.org/2000/svg" xmlns:xlink="http://www.w3.org/1999/xlink" x="0px" y="0px"
	 width="548.291px" height="548.291px" viewBox="0 0 548.291 548.291" style="enable-background:new 0 0 548.291 548.291;"
	 xml:space="preserve">
<g>
	<g>
		<path d="M169.939,299.101c0.215-30.142-17.444-46.082-45.655-46.082c-7.314,0-12.058,0.652-14.858,1.302v94.954
			c2.801,0.652,7.323,0.652,11.412,0.652C150.555,350.137,169.939,333.78,169.939,299.101z"/>
		<path d="M274.145,253.019c-7.315,0-12.058,0.652-14.851,1.302v94.954c2.801,0.652,7.321,0.652,11.41,0.652
			c29.72,0.21,49.101-16.147,49.101-50.826C320.015,268.959,302.362,253.019,274.145,253.019z"/>
		<path d="M486.206,196.121H473.04v-63.525c0-0.396-0.062-0.795-0.109-1.2c-0.021-2.52-0.829-4.997-2.556-6.96L364.657,3.677
			c-0.033-0.031-0.064-0.042-0.085-0.075c-0.63-0.704-1.364-1.29-2.143-1.796c-0.229-0.154-0.461-0.283-0.702-0.419
			c-0.672-0.365-1.387-0.672-2.121-0.893c-0.2-0.052-0.379-0.134-0.577-0.186C358.23,0.118,357.401,0,356.562,0H96.757
			C84.894,0,75.256,9.649,75.256,21.502v174.613H62.092c-16.971,0-30.732,13.756-30.732,30.733v159.812
			c0,16.961,13.761,30.731,30.732,30.731h13.164V526.79c0,11.854,9.638,21.501,21.501,21.501h354.776
			c11.853,0,21.501-9.647,21.501-21.501V417.392h13.166c16.966,0,30.729-13.764,30.729-30.731V226.854
			C516.93,209.872,503.176,196.121,486.206,196.121z M96.757,21.502h249.054v110.006c0,5.94,4.817,10.751,10.751,10.751h94.972
			v53.861H96.757V21.502z M354.682,298.031c0,27.779-10.12,46.934-24.11,58.794c-15.287,12.691-38.543,18.719-66.968,18.719
			c-17.019,0-29.071-1.07-37.258-2.153V230.835c12.064-1.929,27.78-3.004,44.358-3.004c27.562,0,45.437,4.958,59.432,15.498
			C345.211,254.531,354.682,272.397,354.682,298.031z M76.481,373.385V230.83c12.063-1.93,27.774-3.005,44.357-3.005
			c27.56,0,45.439,4.958,59.432,15.499c15.079,11.202,24.549,29.068,24.549,54.696c0,27.779-10.121,46.939-24.113,58.799
			c-15.289,12.687-38.541,18.714-66.967,18.714C96.726,375.543,84.667,374.473,76.481,373.385z M451.534,520.968H96.757V417.392
			h354.776V520.968z M411.744,376.195c-16.578,0-32.946-4.306-41.13-8.835l6.672-27.13c8.835,4.514,22.394,9.045,36.394,9.045
			c15.072,0,23.04-6.237,23.04-15.716c0-9.045-6.897-14.227-24.326-20.467c-24.125-8.396-39.842-21.744-39.842-42.85
			c0-24.763,20.672-43.717,54.909-43.717c16.366,0,28.431,3.457,37.04,7.326l-7.318,26.491c-5.816-2.801-16.158-6.897-30.363-6.897
			c-14.221,0-21.103,6.467-21.103,13.998c0,9.265,8.173,13.36,26.909,20.467c25.627,9.469,37.685,22.824,37.685,43.275
			C470.31,355.521,451.571,376.195,411.744,376.195z"/>
	</g>
</g>
<g>
</g>
<g>
</g>
<g>
</g>
<g>
</g>
<g>
</g>
<g>
</g>
<g>
</g>
<g>
</g>
<g>
</g>
<g>
</g>
<g>
</g>
<g>
</g>
<g>
</g>
<g>
</g>
<g>
</g>
</svg>
