<?xml version="1.0" standalone="no"?>
<!DOCTYPE svg PUBLIC "-//W3C//DTD SVG 20010904//EN"
 "http://www.w3.org/TR/2001/REC-SVG-20010904/DTD/svg10.dtd">
<svg version="1.0" xmlns="http://www.w3.org/2000/svg"
 width="1186.000000pt" height="1280.000000pt" viewBox="0 0 1186.000000 1280.000000"
 preserveAspectRatio="xMidYMid meet">
<metadata>
Created by potrace 1.15, written by Peter Selinger 2001-2017
</metadata>
<g transform="translate(0.000000,1280.000000) scale(0.100000,-0.100000)"
fill="#000000" stroke="none">
<path d="M7061 12738 c-31 -98 -153 -512 -231 -783 -313 -1092 -638 -2386
-890 -3540 -51 -231 -94 -427 -97 -435 -7 -19 0 -38 -118 365 -281 961 -650
2059 -1043 3100 -153 405 -176 464 -180 461 -2 -3 4 -172 12 -378 31 -746 50
-1377 66 -2238 11 -591 13 -2362 3 -2602 l-6 -156 -99 231 c-119 278 -391 830
-518 1052 -215 373 -445 705 -648 933 -36 40 -66 71 -68 70 -1 -2 19 -84 46
-183 142 -532 274 -1191 365 -1825 31 -220 95 -726 95 -754 0 -12 -47 69 -103
179 -352 682 -713 1213 -1157 1700 -153 168 -254 266 -246 240 34 -123 186
-801 250 -1115 251 -1242 426 -2505 486 -3515 6 -99 12 -204 15 -234 2 -30 0
-50 -5 -45 -4 5 -50 81 -100 169 -673 1168 -1562 2195 -2475 2860 -127 92
-277 193 -360 241 l-50 29 30 -40 c191 -254 284 -382 379 -523 792 -1179 1356
-2660 1645 -4317 83 -474 148 -1021 166 -1400 3 -66 8 -157 11 -202 l6 -83
3831 0 3832 0 2 191 c5 562 136 1105 408 1698 297 648 804 1345 1380 1899 81
78 142 142 135 142 -7 0 -94 -27 -194 -61 -978 -329 -1789 -826 -2511 -1541
l-141 -138 38 332 c114 1020 181 2007 196 2892 23 1340 -52 2423 -233 3378
-143 755 -371 1428 -612 1802 -24 37 -46 66 -48 64 -3 -2 2 -119 10 -259 29
-509 38 -857 38 -1479 0 -882 -26 -1514 -99 -2380 -47 -573 -159 -1554 -176
-1544 -4 3 -8 20 -8 39 0 40 -29 298 -66 575 -104 804 -266 1613 -465 2335
-45 163 -166 559 -202 660 l-14 40 -7 -60 c-3 -33 -25 -226 -47 -430 -101
-931 -267 -2184 -393 -2965 -30 -190 -32 -179 -51 420 -81 2527 -13 4801 210
6930 12 124 22 226 20 228 -2 2 -8 -12 -14 -30z"/>
</g>
</svg>
