<svg xmlns="http://www.w3.org/2000/svg" viewBox="0 0 70 70"><defs><style>.cls-1{fill:#fff;}.cls-2{fill:#bb464b;}.cls-3{fill:#e0684b;}.cls-4{fill:#e0ded8;}.cls-5{fill:#d5d2ca;}.cls-6{fill:none;}</style></defs><title>logo_page</title><g id="Layer_2" data-name="Layer 2"><g id="Header_Bar" data-name="Header Bar"><polygon class="cls-1" points="35 14.93 17.6 24.97 17.6 45.06 35 55.1 52.4 45.06 52.4 24.97 35 14.93"/><polygon class="cls-2" points="46.95 21.83 41.71 24.85 47.16 28 47.16 42.04 35 49.06 22.84 42.04 22.84 28 40.24 17.95 35 14.93 17.6 24.97 17.6 45.06 35 55.1 52.4 45.06 52.4 24.97 46.95 21.83"/><polygon class="cls-2" points="35 28.73 29.55 31.87 29.55 38.16 35 41.3 40.45 38.16 40.45 31.87 35 28.73"/><polygon class="cls-3" points="52.4 24.97 46.95 21.83 41.71 24.85 47.16 28 52.4 24.97"/><polygon class="cls-3" points="22.84 28 40.24 17.95 35 14.93 17.6 24.97 22.84 28"/><polygon class="cls-3" points="29.55 38.16 35 41.3 40.45 38.16 35 35.02 29.55 38.16"/><polygon class="cls-2" points="47.16 28 47.16 42.04 35 49.06 22.84 42.04 22.84 28 17.6 24.97 17.6 45.06 35 55.11 52.4 45.06 52.4 24.97 47.16 28"/><polygon class="cls-4" points="47.16 28 40.45 31.87 40.45 38.16 35 41.3 35 49.06 47.16 42.04 47.16 28"/><polygon class="cls-5" points="22.84 28 29.55 31.87 29.55 38.16 35 41.3 35 49.06 22.84 42.04 22.84 28"/><polygon class="cls-1" points="40.24 17.95 46.95 21.83 41.71 24.85 47.16 28 40.45 31.87 35 28.73 29.55 31.87 22.84 28 40.24 17.95"/><rect class="cls-6" width="70" height="70"/></g></g></svg>