<svg class="svg-icon" style="width: 1em; height: 1em;vertical-align: middle;fill: currentColor;overflow: hidden;" viewBox="0 0 1024 1024" version="1.1" xmlns="http://www.w3.org/2000/svg"><path d="M512.5 829C337.702 829 196 687.298 196 512.5S337.702 196 512.5 196 829 337.702 829 512.5 687.298 829 512.5 829z m0-60C654.161 769 769 654.161 769 512.5S654.161 256 512.5 256 256 370.839 256 512.5 370.839 769 512.5 769zM483 622h46a7 7 0 0 1 7 7v46a7 7 0 0 1-7 7h-46a7 7 0 0 1-7-7v-46a7 7 0 0 1 7-7z m53.042-57.45v30h-60v-30c0-4.463 0.027-7.062 0.155-10.328 0.303-7.719 0.946-13.36 2.901-19.091 1.649-4.832 2.855-7.873 4.802-11.425 2.952-5.385 6.803-9.983 11.75-13.847 6.844-5.346 13.437-8.17 28.196-13.239 7.959-2.733 19.842-10.089 28.818-18.845C562.774 467.912 568 457.827 568 448.5c0-30.652-24.848-55.5-55.5-55.5S457 417.848 457 448.5v30h-60v-30c0-63.789 51.711-115.5 115.5-115.5S628 384.711 628 448.5c0 27.488-12.696 51.989-33.439 72.224-15.298 14.924-34.823 27.01-51.228 32.644-3 1.03-5.325 1.857-7.153 2.544-0.117 2.906-0.138 4.933-0.138 8.638z"  /></svg>