<svg id="Calque_1" data-name="Calque 1" xmlns="http://www.w3.org/2000/svg" viewBox="0 0 491.82 491.82"><defs><style>.cls-1,.cls-2{fill:none;stroke:#000;stroke-linecap:round;stroke-miterlimit:10;}.cls-1{stroke-width:45px;}.cls-2{stroke-width:25px;}</style></defs><path d="M246.59,105.49a140.12,140.12,0,1,1-99.07,41,139.19,139.19,0,0,1,99.07-41m0-45c-102.23,0-185.11,82.88-185.11,185.11s82.88,185.12,185.11,185.12S431.7,347.84,431.7,245.6,348.83,60.49,246.59,60.49Z"/><path class="cls-1" d="M250.31,146.43A184.19,184.19,0,0,1,339,204.65"/><line class="cls-2" x1="245.8" y1="37.44" x2="245.8" y2="12.5"/><line class="cls-2" x1="98.42" y1="98.58" x2="80.78" y2="80.94"/><line class="cls-2" x1="37.44" y1="246.02" x2="12.5" y2="246.02"/><line class="cls-2" x1="98.58" y1="393.4" x2="80.94" y2="411.03"/><line class="cls-2" x1="246.02" y1="454.38" x2="246.02" y2="479.32"/><line class="cls-2" x1="393.4" y1="393.24" x2="411.03" y2="410.87"/><line class="cls-2" x1="454.38" y1="245.8" x2="479.32" y2="245.8"/><line class="cls-2" x1="393.24" y1="98.42" x2="410.87" y2="80.78"/></svg>