<?xml version="1.0" encoding="utf-8"?>
<!-- Svg Vector Icons : http://www.onlinewebfonts.com/icon -->
<!DOCTYPE svg PUBLIC "-//W3C//DTD SVG 1.1//EN" "http://www.w3.org/Graphics/SVG/1.1/DTD/svg11.dtd">
<svg version="1.1" xmlns="http://www.w3.org/2000/svg" xmlns:xlink="http://www.w3.org/1999/xlink" x="0px" y="0px" viewBox="0 0 1000 1000" enable-background="new 0 0 1000 1000" xml:space="preserve">
<metadata> Svg Vector Icons : http://www.onlinewebfonts.com/icon </metadata>
<g><path d="M962.8,863.2H64.5V109.5c0-15-12.2-27.2-27.2-27.2c-15,0-27.2,12.2-27.2,27.2v780.9c0,15,12.2,27.2,27.2,27.2h925.5c15,0,27.2-12.2,27.2-27.2S977.8,863.2,962.8,863.2z"/><path d="M117.8,744.7c4.9,3.7,10.7,5.5,16.3,5.5c8.3,0,16.4-3.8,21.8-10.9l201.3-267.7l190.9,125.6c9.8,6.5,22.7,5.9,31.9-1.4l360-286.5c11.8-9.4,13.7-26.5,4.3-38.3c-9.4-11.8-26.5-13.7-38.3-4.3L561.5,540.8L365.8,412c-12-7.9-28.1-5.1-36.7,6.4L112.4,706.5C103.3,718.6,105.7,735.6,117.8,744.7z"/></g>
</svg>