<?xml version="1.0" encoding="UTF-8" standalone="no"?>
<!-- Created with Inkscape (http://www.inkscape.org/) -->
<svg
   xmlns:svg="http://www.w3.org/2000/svg"
   xmlns="http://www.w3.org/2000/svg"
   xmlns:xlink="http://www.w3.org/1999/xlink"
   version="1.0"
   width="260"
   height="215"
   id="svg2">
  <defs
     id="defs4">
    <linearGradient
       id="linearGradient11802">
      <stop
         style="stop-color:#f2f2f2;stop-opacity:1"
         offset="0"
         id="stop11804" />
      <stop
         style="stop-color:#f2f2f2;stop-opacity:0"
         offset="1"
         id="stop11806" />
    </linearGradient>
    <linearGradient
       id="linearGradient10907">
      <stop
         style="stop-color:gray;stop-opacity:1"
         offset="0"
         id="stop10909" />
      <stop
         style="stop-color:#666;stop-opacity:0"
         offset="1"
         id="stop10911" />
    </linearGradient>
    <linearGradient
       id="linearGradient7341">
      <stop
         style="stop-color:gray;stop-opacity:1"
         offset="0"
         id="stop7343" />
      <stop
         style="stop-color:gray;stop-opacity:0"
         offset="1"
         id="stop7345" />
    </linearGradient>
    <linearGradient
       x1="91.107216"
       y1="170.33635"
       x2="206.29361"
       y2="103.38951"
       id="linearGradient7347"
       xlink:href="#linearGradient7341"
       gradientUnits="userSpaceOnUse" />
    <linearGradient
       x1="2.9193301"
       y1="200.81725"
       x2="67.882988"
       y2="137.17694"
       id="linearGradient10913"
       xlink:href="#linearGradient10907"
       gradientUnits="userSpaceOnUse" />
    <linearGradient
       x1="55.508488"
       y1="119.27718"
       x2="78.843262"
       y2="206.95937"
       id="linearGradient11808"
       xlink:href="#linearGradient11802"
       gradientUnits="userSpaceOnUse" />
    <linearGradient
       x1="91.107216"
       y1="170.33635"
       x2="206.29361"
       y2="103.38951"
       id="linearGradient11874"
       xlink:href="#linearGradient7341"
       gradientUnits="userSpaceOnUse" />
    <linearGradient
       x1="2.9193301"
       y1="200.81725"
       x2="67.882988"
       y2="137.17694"
       id="linearGradient11876"
       xlink:href="#linearGradient10907"
       gradientUnits="userSpaceOnUse" />
    <linearGradient
       x1="55.508488"
       y1="119.27718"
       x2="78.843262"
       y2="206.95937"
       id="linearGradient11878"
       xlink:href="#linearGradient11802"
       gradientUnits="userSpaceOnUse" />
    <linearGradient
       x1="2.9193301"
       y1="200.81725"
       x2="67.882988"
       y2="137.17694"
       id="linearGradient11890"
       xlink:href="#linearGradient10907"
       gradientUnits="userSpaceOnUse" />
    <linearGradient
       x1="55.508488"
       y1="119.27718"
       x2="78.843262"
       y2="206.95937"
       id="linearGradient11892"
       xlink:href="#linearGradient11802"
       gradientUnits="userSpaceOnUse" />
    <linearGradient
       x1="91.107216"
       y1="170.33635"
       x2="206.29361"
       y2="103.38951"
       id="linearGradient11894"
       xlink:href="#linearGradient7341"
       gradientUnits="userSpaceOnUse" />
    <linearGradient
       x1="91.107216"
       y1="170.33635"
       x2="206.29361"
       y2="103.38951"
       id="linearGradient11908"
       xlink:href="#linearGradient7341"
       gradientUnits="userSpaceOnUse" />
    <linearGradient
       x1="2.9193301"
       y1="200.81725"
       x2="67.882988"
       y2="137.17694"
       id="linearGradient11910"
       xlink:href="#linearGradient10907"
       gradientUnits="userSpaceOnUse" />
    <linearGradient
       x1="55.508488"
       y1="119.27718"
       x2="78.843262"
       y2="206.95937"
       id="linearGradient11912"
       xlink:href="#linearGradient11802"
       gradientUnits="userSpaceOnUse" />
  </defs>
  <g
     transform="translate(1.060672,2.121343)"
     id="g11896">
    <g
       transform="translate(11.22296,-1.773234)"
       id="g11844">
      <g
         id="g11840">
        <path
           d="M 2.36435,203.23804 C 3.97693,205.64062 3.02723,197.21005 4.0254,194.42163 C 5.67169,189.82259 8.54031,188.04365 10.2543,184.21315 C 13.17029,177.69636 19.85523,173.42905 22.71211,167.04436 C 24.24499,163.61863 26.86471,156.1303 26.86471,152.19567 C 26.86471,142.77054 35.76515,128.3952 40.98356,121.10623 C 46.16315,113.87149 53.00203,108.85002 57.59398,101.15331 C 63.7376,90.85575 67.09678,78.17869 73.78913,68.20779 C 79.5703,59.59442 82.72097,48.48268 89.56902,40.83051 C 91.27458,38.92469 92.92087,31.94757 94.13689,29.229979 C 95.48703,26.212609 96.74509,22.676309 97.45897,19.485521 C 98.44025,15.099506 97.85465,13.939143 100.78105,10.669113 C 103.61173,7.506045 104.55368,4.298673 107.42522,5.100855 C 107.8178,5.210525 111.09405,8.871619 111.57782,9.277048 C 114.91236,12.071617 118.19319,19.661227 120.71355,24.589759 C 123.65814,30.3479 131.80105,37.09982 136.49344,41.29453 C 141.72203,45.96857 139.91473,45.47073 145.62917,45.47073 C 149.85277,45.47073 150.08187,46.79845 153.51911,48.71888 C 160.31963,52.51841 166.04523,63.77109 168.46848,70.99191 C 171.97983,81.455 176.6495,93.03366 181.75681,102.54537 C 189.10123,116.22341 190.75532,107.811 194.21462,127.13851 C 196.17828,138.10969 206.89012,151.04686 213.73186,158.69198 C 217.69895,163.12489 221.19033,165.17015 224.94389,169.36447 C 230.467,175.53611 232.78597,184.76053 237.4017,191.6375 C 240.21574,195.83014 241.96156,199.05291 245.29164,202.77401 C 245.39062,202.88462 246.68437,202.77401 246.95269,202.77401 C 244.986,204.97164 243.54218,206.30358 241.5543,207.41424 C 239.80687,208.39055 238.79142,208.8063 236.15591,208.8063 C 232.04864,208.8063 232.27238,209.42065 227.85071,206.95021 C 225.54998,205.66476 223.18166,205.50161 220.79128,204.16608 C 218.82838,203.06938 214.75332,201.55129 212.48607,200.91793 C 209.97469,200.21636 207.8719,200.91793 205.42665,200.91793 C 200.05376,200.91793 195.46315,199.98989 190.06202,199.98989 C 184.80205,199.98989 179.54209,199.98989 174.28213,199.98989 C 163.7464,199.98989 155.45367,207.41424 145.21391,207.41424 C 139.41922,207.41424 135.16454,202.31 129.84928,202.31 C 125.0197,202.31 124.30927,198.59783 119.46776,198.59783 C 113.65412,198.59783 107.84047,198.59783 102.02683,198.59783 C 97.80155,198.59783 94.2074,196.49003 89.98428,197.66979 C 85.41451,198.94637 80.7449,199.67083 76.28069,200.91793 C 75.72701,201.07261 75.17333,201.22728 74.61965,201.38196 C 70.18898,202.61969 67.99818,205.09413 62.99236,205.09413 C 59.27016,205.09413 55.34187,206.95021 52.19559,206.95021 C 49.79724,206.95021 44.32053,206.98349 43.05987,204.16608 C 42.39989,202.69115 39.2311,198.15934 37.66148,198.59783 C 34.54244,199.46915 34.36562,197.68443 31.84784,196.27772 C 30.29603,195.4107 28.58567,193.24484 26.03419,193.95761 C 24.0854,194.50202 21.89058,194.30311 19.80528,194.88565 C 17.98367,195.39453 14.21897,194.63162 12.74586,196.27772 C 11.08933,198.12877 9.27391,199.37759 7.34748,200.45391 C 6.65961,200.83822 3.69765,204.7279 2.36435,203.23804 z "
           style="fill:white;fill-opacity:1;fill-rule:evenodd;stroke:none;stroke-width:1px;stroke-linecap:butt;stroke-linejoin:miter;stroke-opacity:1"
           id="path11810" />
        <path
           d="M 2.36435,203.23804 C 3.97693,205.64062 3.02723,197.21005 4.0254,194.42163 C 5.67169,189.82259 8.54031,188.04365 10.2543,184.21315 C 13.17029,177.69636 19.85523,173.42905 22.71211,167.04436 C 24.24499,163.61863 26.86471,156.1303 26.86471,152.19567 C 26.86471,142.77054 35.76515,128.3952 40.98356,121.10623 C 46.16315,113.87149 53.00203,108.85002 57.59398,101.15331 C 63.7376,90.85575 67.09678,78.17869 73.78913,68.20779 C 79.5703,59.59442 82.72097,48.48268 89.56902,40.83051 C 91.27458,38.92469 92.92087,31.94757 94.13689,29.229979 C 95.48703,26.212609 96.74509,22.676309 97.45897,19.485521 C 98.44025,15.099506 97.85465,13.939143 100.78105,10.669113 C 103.61173,7.506045 104.55368,4.298673 107.42522,5.100855 C 107.8178,5.210525 111.09405,8.871619 111.57782,9.277048 C 114.91236,12.071617 118.19319,19.661227 120.71355,24.589759 C 123.65814,30.3479 131.80105,37.09982 136.49344,41.29453 C 141.72203,45.96857 139.91473,45.47073 145.62917,45.47073 C 149.85277,45.47073 150.08187,46.79845 153.51911,48.71888 C 160.31963,52.51841 166.04523,63.77109 168.46848,70.99191 C 171.97983,81.455 176.6495,93.03366 181.75681,102.54537 C 189.10123,116.22341 190.75532,107.811 194.21462,127.13851 C 196.17828,138.10969 206.89012,151.04686 213.73186,158.69198 C 217.69895,163.12489 221.19033,165.17015 224.94389,169.36447 C 230.467,175.53611 232.78597,184.76053 237.4017,191.6375 C 240.21574,195.83014 241.96156,199.05291 245.29164,202.77401 C 245.39062,202.88462 246.68437,202.77401 246.95269,202.77401 C 244.986,204.97164 243.54218,206.30358 241.5543,207.41424 C 239.80687,208.39055 238.79142,208.8063 236.15591,208.8063 C 232.04864,208.8063 232.27238,209.42065 227.85071,206.95021 C 225.54998,205.66476 223.18166,205.50161 220.79128,204.16608 C 218.82838,203.06938 214.75332,201.55129 212.48607,200.91793 C 209.97469,200.21636 207.8719,200.91793 205.42665,200.91793 C 200.05376,200.91793 195.46315,199.98989 190.06202,199.98989 C 184.80205,199.98989 179.54209,199.98989 174.28213,199.98989 C 163.7464,199.98989 155.45367,207.41424 145.21391,207.41424 C 139.41922,207.41424 135.16454,202.31 129.84928,202.31 C 125.0197,202.31 124.30927,198.59783 119.46776,198.59783 C 113.65412,198.59783 107.84047,198.59783 102.02683,198.59783 C 97.80155,198.59783 94.2074,196.49003 89.98428,197.66979 C 85.41451,198.94637 80.7449,199.67083 76.28069,200.91793 C 75.72701,201.07261 75.17333,201.22728 74.61965,201.38196 C 70.18898,202.61969 67.99818,205.09413 62.99236,205.09413 C 59.27016,205.09413 55.34187,206.95021 52.19559,206.95021 C 49.79724,206.95021 44.32053,206.98349 43.05987,204.16608 C 42.39989,202.69115 39.2311,198.15934 37.66148,198.59783 C 34.54244,199.46915 34.36562,197.68443 31.84784,196.27772 C 30.29603,195.4107 28.58567,193.24484 26.03419,193.95761 C 24.0854,194.50202 21.89058,194.30311 19.80528,194.88565 C 17.98367,195.39453 14.21897,194.63162 12.74586,196.27772 C 11.08933,198.12877 9.27391,199.37759 7.34748,200.45391 C 6.65961,200.83822 3.69765,204.7279 2.36435,203.23804 z "
           style="fill:url(#linearGradient11908);fill-opacity:1;fill-rule:evenodd;stroke:none;stroke-width:1px;stroke-linecap:butt;stroke-linejoin:miter;stroke-opacity:1"
           id="path1874" />
      </g>
      <path
         d="M 82.09434,51.96703 C 83.96787,50.92027 81.98809,47.10024 82.92486,45.0067 C 83.9568,42.70046 84.97223,41.79088 86.66219,39.90247 C 88.05654,38.34439 87.88711,35.7729 88.7385,33.87019 C 89.70437,31.71162 90.9439,29.405479 91.64532,27.837909 C 92.73619,25.399989 94.13689,24.821139 94.13689,21.341607 C 94.13689,19.396194 96.18159,16.378581 96.62844,14.381285 C 97.45901,10.668934 98.75849,9.681021 100.78105,7.420962 C 102.35877,5.657981 102.90572,4.582785 104.10313,3.244769 C 105.84367,1.299851 105.73231,1.611793 108.25573,2.316726 C 108.55384,2.400004 111.55582,6.858636 111.57782,6.956941 C 111.83748,8.117565 114.92859,10.701176 115.31516,11.133134 C 116.64673,12.621057 116.56095,13.525785 116.56095,16.701393 C 116.56095,18.712657 119.85887,18.994512 121.1288,20.413565 C 122.58945,22.045725 123.45724,22.833129 124.45089,25.053779 C 125.39601,27.165989 127.16121,29.474419 128.60349,31.08606 C 130.12224,32.78316 132.01714,34.99098 134.00188,36.65432 C 135.59582,37.99016 136.91525,38.98174 138.56974,40.83051 C 140.26333,42.72297 142.53659,42.22257 144.79864,42.22257 C 147.30426,42.22257 147.07489,44.07866 150.19703,44.07866 C 152.39571,44.07866 154.30816,44.06708 156.01067,44.54269 C 156.49621,44.67832 160.07008,50.74545 160.57854,51.50301 C 162.41747,54.24282 163.96361,55.81999 165.1464,58.46333 C 166.12715,60.65514 165.83254,62.92223 166.39218,65.42365 C 166.86919,67.55575 168.58416,68.84415 169.71426,70.52789 C 172.17852,74.19937 172.40581,79.02355 175.11265,83.05647 C 176.85943,85.65899 181.34155,93.23241 181.34155,96.04907 C 181.34155,99.37795 182.80841,99.82137 183.41786,102.54537 C 184.21481,106.10749 183.12548,105.0028 185.49416,107.64961 C 186.69129,108.98732 188.70462,112.25864 185.49416,111.36178 C 183.44769,110.79008 182.62621,109.52742 180.92629,108.57765 C 178.68638,107.32619 177.31812,105.90177 175.52791,104.40145 C 172.96453,102.25318 171.11416,101.05045 168.46848,98.8332 C 165.40406,96.26501 164.33231,87.77013 163.48536,83.98451 C 162.91093,81.41696 156.76923,78.70397 154.76489,77.02419 C 151.51305,74.29893 149.12844,73.47752 145.21391,72.38397 C 141.39086,71.31598 138.91644,70.52789 134.83239,70.52789 C 132.75609,70.52789 130.67979,70.52789 128.60349,70.52789 C 125.9173,70.52789 124.02046,67.2628 122.37458,65.42365 C 119.87921,62.63526 119.46776,57.14713 119.46776,53.35909 C 119.46776,50.28121 119.3925,45.93475 116.14568,45.93475 C 113.60568,45.93475 111.7052,45.86358 109.91678,46.8628 C 106.85848,48.5715 106.35817,54.25335 104.10313,56.14322 C 102.15684,57.77435 101.59962,58.87393 100.78105,55.21518 C 100.2277,52.74191 98.38622,51.23607 97.04371,50.11094 C 95.62805,48.92453 93.04451,48.49943 91.64532,47.32681 C 89.99792,45.94618 88.49596,49.91794 87.49272,51.03898 C 85.96218,52.74925 84.18991,52.55244 82.09434,51.96703 z "
         style="fill:#f9f9f9;fill-rule:evenodd;stroke:none;stroke-width:1px;stroke-linecap:butt;stroke-linejoin:miter;stroke-opacity:1"
         id="path2762" />
    </g>
    <g
       transform="translate(-1.151544,1.055224)"
       id="g11850">
      <g
         id="g11836">
        <path
           d="M 144.95847,207.17154 C 144.83274,205.91591 142.92996,204.10018 142.48357,201.86818 C 141.98437,199.3722 140.51813,197.89557 140.00866,195.85771 C 139.24092,192.78674 138.81414,190.26265 137.88732,187.01878 C 136.43169,181.92408 135.4026,178.33208 133.64463,173.93716 C 131.38916,168.29848 127.22316,170.34415 124.09859,167.21957 C 122.4557,165.57668 120.92748,164.04847 119.14879,162.26977 C 117.50412,160.62511 116.26242,158.32273 115.25966,157.31997 C 113.28732,155.34763 110.80767,152.44466 108.89563,149.89527 C 107.16804,147.59182 105.95938,145.19124 104.29938,143.53124 C 101.98231,141.21417 100.8118,137.97031 99.349583,135.04587 C 96.597034,129.54077 92.756294,124.04278 90.510652,118.42868 C 89.264377,115.31299 88.035751,113.4428 88.035751,110.29686 C 88.035751,108.41046 85.843548,106.90251 85.207293,106.05417 C 84.854253,105.58345 80.297364,103.53248 79.19682,102.87216 C 75.675795,100.75954 72.058572,99.364966 69.650775,96.154571 C 68.361795,94.435931 67.298758,93.218323 66.46876,91.558327 C 65.440802,89.502411 64.72195,88.392044 63.286745,87.31564 C 61.245799,85.784931 60.853892,85.194296 58.336944,85.194296 C 56.580059,85.194296 55.430554,89.592847 54.801371,90.851212 C 52.596957,95.26004 53.36723,99.184698 49.85157,103.57927 C 46.766948,107.43505 46.122497,110.16881 42.426868,113.12532 C 39.381049,115.56197 37.053975,116.09284 35.355723,119.48935 C 33.454208,123.29238 31.420076,127.36064 29.34525,131.51029 C 27.746591,134.70761 26.573185,136.75726 24.041892,139.28855 C 21.171585,142.15886 21.699507,146.53675 20.859877,149.89527 C 20.14973,152.73586 15.211688,159.75997 13.788732,165.45179 C 13.06447,168.34884 11.983496,171.89072 10.606717,174.64428 C 9.3706083,177.11649 8.7742138,179.85295 8.1318164,182.42254 C 7.5739146,184.65414 5.8049246,180.06271 4.2426868,186.31167 C 3.3356592,189.93978 2.2154492,193.35994 1.4142289,196.56483 C 0.90371125,198.6069 1.0197475,201.06245 2.8284579,201.51463 C 6.5283577,202.4396 4.161548,203.47948 3.5355723,203.63597 C 1.2574908,204.20549 8.2396012,202.72276 10.25316,201.51463 C 10.705103,201.24346 11.195979,201.04322 11.667389,200.80751 C 13.641208,199.8206 15.976915,198.84624 18.031419,198.33261 C 20.009258,197.83815 20.818078,197.6255 23.334777,197.6255 C 24.439381,197.6255 27.380888,199.07112 28.991693,199.39328 C 31.009819,199.79691 31.967773,200.2995 33.587937,201.51463 C 34.774243,202.40436 34.967162,203.94286 36.062838,205.40376 C 37.483954,207.29858 39.782224,208.013 42.073311,208.58577 C 44.468421,209.18455 46.771695,209.40681 49.144455,210 C 51.136299,210.49796 53.386031,210.35356 55.508486,210.35356 C 57.81363,210.35356 58.557874,209.18242 60.458287,208.23221 C 62.646907,207.1379 62.973191,205.40376 66.115203,205.40376 C 68.528166,205.40376 71.134256,206.11087 73.893462,206.11087 C 76.478061,206.11087 79.069209,204.05333 81.318164,202.92886 C 83.915718,201.63008 86.677528,201.17507 89.44998,201.86818 C 91.935446,202.48955 94.341398,201.16107 97.228239,201.16107 C 100.3939,201.16107 103.02788,199.46465 105.71361,200.80751 C 108.89717,202.39929 110.36493,201.35117 113.49187,200.1004 C 115.71466,199.21128 118.93524,200.59396 120.20946,201.86818 C 121.7325,203.39122 124.86529,204.56714 127.2806,205.0502 C 129.70749,205.53558 130.65327,206.81798 133.64463,206.81798 C 136.11953,206.81798 138.59444,206.81798 141.06934,206.81798 C 142.47462,206.81798 143.53363,206.88658 144.95847,207.17154 z "
           style="fill:#b3b3b3;fill-rule:evenodd;stroke:none;stroke-width:1px;stroke-linecap:butt;stroke-linejoin:miter;stroke-opacity:1"
           id="path6452" />
        <path
           d="M 144.95847,207.17154 C 144.83274,205.91591 142.92996,204.10018 142.48357,201.86818 C 141.98437,199.3722 140.51813,197.89557 140.00866,195.85771 C 139.24092,192.78674 138.81414,190.26265 137.88732,187.01878 C 136.43169,181.92408 135.4026,178.33208 133.64463,173.93716 C 131.38916,168.29848 127.22316,170.34415 124.09859,167.21957 C 122.4557,165.57668 120.92748,164.04847 119.14879,162.26977 C 117.50412,160.62511 116.26242,158.32273 115.25966,157.31997 C 113.28732,155.34763 110.80767,152.44466 108.89563,149.89527 C 107.16804,147.59182 105.95938,145.19124 104.29938,143.53124 C 101.98231,141.21417 100.8118,137.97031 99.349583,135.04587 C 96.597034,129.54077 92.756294,124.04278 90.510652,118.42868 C 89.264377,115.31299 88.035751,113.4428 88.035751,110.29686 C 88.035751,108.41046 85.843548,106.90251 85.207293,106.05417 C 84.854253,105.58345 80.297364,103.53248 79.19682,102.87216 C 75.675795,100.75954 72.058572,99.364966 69.650775,96.154571 C 68.361795,94.435931 67.298758,93.218323 66.46876,91.558327 C 65.440802,89.502411 64.72195,88.392044 63.286745,87.31564 C 61.245799,85.784931 60.853892,85.194296 58.336944,85.194296 C 56.580059,85.194296 55.430554,89.592847 54.801371,90.851212 C 52.596957,95.26004 53.36723,99.184698 49.85157,103.57927 C 46.766948,107.43505 46.122497,110.16881 42.426868,113.12532 C 39.381049,115.56197 37.053975,116.09284 35.355723,119.48935 C 33.454208,123.29238 31.420076,127.36064 29.34525,131.51029 C 27.746591,134.70761 26.573185,136.75726 24.041892,139.28855 C 21.171585,142.15886 21.699507,146.53675 20.859877,149.89527 C 20.14973,152.73586 15.211688,159.75997 13.788732,165.45179 C 13.06447,168.34884 11.983496,171.89072 10.606717,174.64428 C 9.3706083,177.11649 8.7742138,179.85295 8.1318164,182.42254 C 7.5739146,184.65414 5.8049246,180.06271 4.2426868,186.31167 C 3.3356592,189.93978 2.2154492,193.35994 1.4142289,196.56483 C 0.90371125,198.6069 1.0197475,201.06245 2.8284579,201.51463 C 6.5283577,202.4396 4.161548,203.47948 3.5355723,203.63597 C 1.2574908,204.20549 8.2396012,202.72276 10.25316,201.51463 C 10.705103,201.24346 11.195979,201.04322 11.667389,200.80751 C 13.641208,199.8206 15.976915,198.84624 18.031419,198.33261 C 20.009258,197.83815 20.818078,197.6255 23.334777,197.6255 C 24.439381,197.6255 27.380888,199.07112 28.991693,199.39328 C 31.009819,199.79691 31.967773,200.2995 33.587937,201.51463 C 34.774243,202.40436 34.967162,203.94286 36.062838,205.40376 C 37.483954,207.29858 39.782224,208.013 42.073311,208.58577 C 44.468421,209.18455 46.771695,209.40681 49.144455,210 C 51.136299,210.49796 53.386031,210.35356 55.508486,210.35356 C 57.81363,210.35356 58.557874,209.18242 60.458287,208.23221 C 62.646907,207.1379 62.973191,205.40376 66.115203,205.40376 C 68.528166,205.40376 71.134256,206.11087 73.893462,206.11087 C 76.478061,206.11087 79.069209,204.05333 81.318164,202.92886 C 83.915718,201.63008 86.677528,201.17507 89.44998,201.86818 C 91.935446,202.48955 94.341398,201.16107 97.228239,201.16107 C 100.3939,201.16107 103.02788,199.46465 105.71361,200.80751 C 108.89717,202.39929 110.36493,201.35117 113.49187,200.1004 C 115.71466,199.21128 118.93524,200.59396 120.20946,201.86818 C 121.7325,203.39122 124.86529,204.56714 127.2806,205.0502 C 129.70749,205.53558 130.65327,206.81798 133.64463,206.81798 C 136.11953,206.81798 138.59444,206.81798 141.06934,206.81798 C 142.47462,206.81798 143.53363,206.88658 144.95847,207.17154 z "
           style="fill:url(#linearGradient11910);fill-opacity:1;fill-rule:evenodd;stroke:none;stroke-width:1px;stroke-linecap:butt;stroke-linejoin:miter;stroke-opacity:1"
           id="path9127" />
      </g>
      <path
         d="M 28.284579,133.27808 C 28.284579,132.48476 28.284579,129.48784 28.284579,127.62116 C 28.284579,125.3419 29.458068,125.62774 30.405922,123.73203 C 31.222672,122.09854 32.046314,121.57562 32.880823,119.48935 C 33.545189,117.82843 34.79764,117.11671 36.416395,116.30733 C 38.145682,115.44269 39.858761,113.95671 41.012639,112.4182 C 42.604303,110.29598 43.474853,108.43237 44.901769,106.05417 C 46.354665,103.63268 47.573565,101.07755 49.144455,98.983029 C 51.057242,96.432646 52.096427,92.018414 53.7407,88.729869 C 54.377073,87.457121 54.375255,85.339414 55.154928,83.780068 C 55.57389,82.942144 59.207332,83.42651 60.10473,83.42651 C 61.916359,83.42651 63.225626,84.456623 64.700974,85.194296 C 66.570745,86.129182 67.175874,85.993146 67.175874,88.376312 C 67.175874,90.338567 69.02024,92.342021 70.004332,93.326113 C 71.243136,94.564917 72.362294,95.447456 74.600576,95.447456 C 75.591145,95.447456 78.296611,98.709702 78.843263,98.983029 C 80.470044,99.796419 82.732393,100.34226 82.732393,102.16504 C 82.732393,103.85644 81.155497,105.50973 80.257492,106.40773 C 78.24911,108.41611 76.896979,110.47536 74.954134,112.4182 C 73.355443,114.01689 72.223638,116.52464 71.772118,118.78223 C 71.288083,121.20241 69.886453,123.14288 69.297218,125.49982 C 68.861925,127.24099 69.297218,129.68969 69.297218,131.51029 C 69.297218,133.826 72.729198,134.99407 74.247019,135.75298 C 75.575423,136.41718 76.813366,138.94722 77.075477,139.99567 C 77.431072,141.41805 75.904702,142.00691 77.429034,143.53124 C 78.788175,144.89038 79.423432,146.91259 79.903935,148.8346 C 80.682833,151.95019 79.161206,149.18816 76.368362,149.18816 C 75.30524,149.18816 71.813115,146.92078 71.065004,146.3597 C 68.602308,144.51268 66.802824,143.59415 63.993859,142.47057 C 61.759307,141.57675 61.301087,138.41707 60.811844,136.4601 C 60.211109,134.05715 61.333478,132.73904 59.751173,131.15674 C 58.447269,129.85283 57.325895,127.99953 55.862043,127.26761 C 53.678307,126.17574 53.090345,125.17464 51.619356,124.43915 C 50.44105,123.85 47.947997,124.08559 46.669555,124.08559 C 43.714828,124.08559 44.049834,124.80969 43.48754,127.62116 C 42.928011,130.41881 40.848601,130.09607 38.537738,130.09607 C 36.485064,130.09607 35.419188,132.57097 32.880823,132.57097 C 30.965463,132.57097 30.464262,132.84214 28.284579,133.27808 z "
         style="fill:url(#linearGradient11912);fill-opacity:1;fill-rule:evenodd;stroke:none;stroke-width:1px;stroke-linecap:butt;stroke-linejoin:miter;stroke-opacity:1"
         id="path10915" />
    </g>
  </g>
</svg>
